<?xml version="1.0" encoding="UTF-8"?><svg id="Calque_2" xmlns="http://www.w3.org/2000/svg" viewBox="0 0 912.53 538.42"><defs><style>.cls-1{fill:#fff;}.cls-2{fill:#bd1f38;}</style></defs><g id="Calque_1-2"><g id="Ikov1p.tif"><g><path class="cls-1" d="M0,449.77c.34-1.11,.85-2.19,.99-3.32,1.28-9.99,4.04-19.49,8.54-28.54,7-14.07,15.27-27.24,26.37-38.48,10.46-10.6,21.98-19.81,35.12-26.9,3.68-1.98,7.32-4.02,11.07-5.87,12.27-6.04,25.23-8.46,38.87-7.19,3.43,.32,6.88,.54,10.3,1.01,7.38,1.01,14.23,3.6,20.71,7.23,2.61,1.47,5.24,2.9,8.04,4.45,.41-.55,.87-1.06,1.21-1.65,18.51-31.46,37.03-62.92,55.51-94.4,5.75-9.79,11.41-19.62,17.1-29.44,.44-.76,.81-1.56,1.5-2.88-1.55,.41-2.56,.7-3.58,.95-8.99,2.2-17.93,4.66-26.99,6.52-10.12,2.08-20.42,1.87-30.69,1.32-7.81-.42-15.56-1.36-23.17-3.26-12.18-3.06-23.11-8.7-32.87-16.49-12.01-9.59-21.64-21.2-28.4-35.07-1.76-3.6-3.02-7.38-3.72-11.35-.83-4.71-.28-9.26,1.55-13.61,.72-1.72,1.9-3.32,3.16-4.71,2.55-2.81,8.47-3.18,12.48-.89,3.3,1.89,6.08,4.45,7.74,7.86,1.97,4.07,3.67,8.29,5.19,12.55,1.16,3.24,1.74,6.68,2.81,9.95,1.05,3.18,2.27,6.32,3.65,9.37,4.87,10.75,13.38,17.2,24.6,20.19,9.13,2.43,18.42,2.69,27.84,2.11,16.36-1.01,31.99-5.31,47.71-9.49,10.42-2.77,20.12-7.29,30.17-10.97,1.6-.59,2.77-1.52,3.66-3.03,2.39-4.07,4.93-8.06,7.41-12.07,1.67-2.7,3.27-5.46,5.04-8.09,14.06-20.87,28.31-41.61,43.37-61.76,8.8-11.77,18.24-23.08,28.07-34.05,10.37-11.58,21.15-22.74,32.13-33.74,11.57-11.59,24.8-20.65,39.67-27.42,9.68-4.41,19.79-7.12,30.36-8.18,.62-.06,1.23-.28,1.84-.42,2.73,0,5.45,0,8.18,0,1.05,.19,2.13,.63,3.15,.51,3.14-.37,5.96,.64,8.64,1.96,7.21,3.56,13.25,8.59,17.82,15.25,4.09,5.97,5.03,12.55,3.3,19.52-1.34,5.42-3.68,10.43-6.41,15.27-5.55,9.85-12.28,18.88-19.57,27.49-8.59,10.15-18.11,19.38-28.25,27.97-11.37,9.63-22.51,19.54-34.11,28.88-14.58,11.74-29.96,22.4-45.65,32.64-11.42,7.45-23.08,14.49-35,21.09-5.55,3.07-11.37,5.67-17.13,8.34-4.61,2.14-9.31,4.09-13.99,6.08-1.2,.51-2.17,1.12-2.9,2.3-6.55,10.58-13.28,21.05-19.74,31.69-7.69,12.65-15.14,25.45-22.74,38.15-2.05,3.43-4.25,6.77-6.46,10.09-10.94,16.4-21.85,32.81-32.88,49.15-5.23,7.76-10.7,15.35-16.04,23.03-1.4,2.01-2.73,4.07-4.42,6.6,.51,.31,1.07,.58,1.57,.95,13.31,9.96,26.52,20.06,39.96,29.84,6.38,4.64,13.05,8.94,19.86,12.91,7.09,4.13,14.98,6.48,22.8,8.89,18.58,5.72,37.57,8.32,57.02,7.09,3.34-.21,6.69-.7,9.98-1.35,8.58-1.7,16.89-4.25,24.8-8.05,2.7-1.3,5.5-2.37,8.22-3.63,1.21-.56,2.25-.39,3.34,.23,2.31,1.32,3.61,3.38,3.96,5.91,1.25,9.1-1.59,16.84-8.14,23.21-.81,.79-2,1.32-3.11,1.64-4.71,1.34-9.41,2.73-14.18,3.79-19.37,4.31-38.94,4.55-58.55,2.22-25.17-3-48.96-10.43-71.18-22.75-7.74-4.29-14.83-9.52-21.76-14.96-9.43-7.41-18.79-14.91-28.18-22.36-.41-.33-.86-.62-1.5-1.08-.86,1.18-1.65,2.27-2.44,3.34-13.65,18.61-27.47,37.1-43.33,53.93-7.35,7.8-15.05,15.26-23.36,22.06-6.47,5.3-12.85,10.73-20.16,14.85-7.83,4.41-15.68,8.83-24.37,11.41-11.3,3.36-22.3,2.46-32.87-2.72-5.82-2.85-10.03-7.4-12.71-13.34-2.53-5.6-3.88-11.51-4.85-17.53-.23-1.42-.67-2.8-1.01-4.21,0-2.18,0-4.36,0-6.54ZM313.64,159.01c.08,.16,.17,.32,.25,.48,2.86-1.52,5.78-2.93,8.56-4.58,6.72-3.98,13.33-8.14,20.05-12.12,20.04-11.9,39.07-25.21,56.3-40.97,7.03-6.43,14.11-12.88,20.52-19.91,6.34-6.97,12.05-14.54,17.68-22.11,3.84-5.16,7.17-10.7,10.53-16.2,2.32-3.79,3.02-8.15,3.37-12.52,.2-2.52-.64-3.68-2.98-4.57-3.17-1.22-6.35-1.33-9.58-.14-4.05,1.49-7.68,3.67-11.1,6.28-17.85,13.58-33.84,29.15-49.04,45.57-9.76,10.54-18.76,21.71-27.64,32.99-4.94,6.28-9.79,12.65-15.07,18.64-7.96,9.02-14.69,18.93-21.65,28.69-.1,.14-.13,.33-.19,.49Zm-168.46,216.6c-5.88-2.08-11.45-4.31-17.45-4.88-7.73-.73-15.29,.36-22.34,3.61-18.18,8.37-33.68,20.27-46.23,35.91-6.14,7.65-10.89,16.03-13.67,25.5-1.34,4.56-2.49,9.09-2.02,13.9,.44,4.52,2.91,6.78,7.44,6.3,2.96-.31,5.94-.86,8.77-1.74,6.64-2.07,12.81-5.21,18.23-9.56,7.07-5.69,14.07-11.47,20.85-17.5,16.47-14.65,31.2-30.9,44.35-48.6,.64-.86,1.24-1.75,2.07-2.93Z"/><path class="cls-1" d="M667.38,318.7c-.59,.78-1.12,1.63-1.79,2.33-13.77,14.35-28.99,26.97-45.39,38.19-5.43,3.71-11.3,6.51-17.64,8.41-6.25,1.87-12.35,1.75-18.43-.53-1.02-.38-2.03-.76-3.32-1.25-.47,1.92-.95,3.74-1.35,5.58-2.81,12.8-6.92,25.21-11.44,37.48-7.44,20.19-15,40.33-22.67,60.43-5.14,13.46-11.97,26.06-20.27,37.86-6.64,9.44-14.39,17.85-23.64,24.72-7.39,5.49-15.86,8.03-24.95,5.55-8.6-2.35-15.46-7.27-19.63-15.61-4.4-8.8-5.71-18.12-5.66-27.75,.05-10.74,.75-21.45,2.99-31.96,1.6-7.53,3.65-14.99,5.81-22.39,6.23-21.29,14.47-41.86,22.72-62.41,6.4-15.93,13.49-31.55,21.03-46.98,4.51-9.22,8.85-18.51,13.26-27.78,.37-.79,.66-1.61,1.2-2.94-1.25,.68-2.01,1.09-2.76,1.51-7.78,4.33-15.55,8.68-24.01,11.6-7.62,2.63-15.41,4.24-23.53,3.68-1.53-.11-3.06-.29-4.72-.45-.44,.74-.87,1.41-1.25,2.1-4.92,8.9-9.69,17.89-14.79,26.68-7.04,12.12-16.54,22.04-28,30.1-6.45,4.53-13.46,7.58-21.42,7.94-7.05,.32-13.36-1.66-19.03-6.07-7.29-5.68-10.59-13.45-12.22-22.13-2.12-11.24-1.08-22.24,3.05-32.93,6.7-17.34,14.83-33.98,25.55-49.2,6.11-8.68,12.4-17.27,19.91-24.87,3.97-4.02,8.05-7.87,12.89-10.85,1.01-.62,1.85-1.74,2.43-2.81,3.42-6.36,8.14-11.57,13.91-15.85,6.05-4.49,12.75-6.75,20.4-6.07,5.44,.48,9.66,2.79,12.73,7.32,3.45,5.09,5.2,10.75,5.78,16.82,.76,7.94-.09,15.79-1.37,23.6-1.96,12.02-4.35,23.94-8.99,35.28-.1,.24-.07,.53-.15,1.21,2.6-.34,5.08-.59,7.54-.98,12.13-1.94,23.26-6.47,33.3-13.49,6.4-4.47,12.57-9.26,18.77-14.01,1.1-.84,2.01-2.11,2.64-3.36,8.85-17.6,17.64-35.24,26.45-52.86,2.93-5.85,5.75-11.75,8.87-17.49,8.77-16.11,17.68-32.14,26.52-48.22,7.22-13.14,14.69-26.11,23.04-38.59,11.84-17.7,24.39-34.82,39.31-50.1,4.21-4.31,8.56-8.38,14.02-11.1,3.12-1.55,6.36-2.55,9.77-3.29,6.43-1.38,11.64,2.83,13.38,8.06,1.35,4.06,1.42,8.21,.97,12.4-.7,6.57-2.62,12.79-5.56,18.7-5.92,11.88-12.42,23.4-20.17,34.23-13.75,19.22-27.94,38.08-43.07,56.25-11.16,13.41-22.15,26.96-32.96,40.64-5.4,6.83-10.27,14.09-15.34,21.19-.63,.88-1.09,1.89-1.52,2.88-8.2,18.61-16.31,37.26-24.61,55.83-6.26,14.01-13.06,27.78-19.04,41.9-5.73,13.54-10.89,27.32-15.96,41.12-7.1,19.34-14.08,38.74-20.75,58.23-5.15,15.04-7.85,30.59-7.83,46.53,0,2.97,.21,6.05,.99,8.9,2.02,7.39,4.78,8.65,11.46,4.05,1.63-1.12,3.04-2.59,4.41-4.04,4.97-5.24,9.1-11.1,12.45-17.48,7.94-15.12,15.23-30.57,21.93-46.26,4.57-10.69,7.93-21.83,11.23-32.98,3.83-12.92,6.06-26.16,8.33-39.4,.58-3.4,.2-6.28-1.35-9.36-4.57-9.05-6.01-18.8-5.47-28.85,.23-4.25,.54-8.54,1.37-12.7,.59-2.97,1.9-5.87,3.3-8.58,1.57-3.04,4.36-4.33,7.82-4.62,6.05-.5,10.3,1.92,13.3,7.09,2.84,4.9,4.23,10.21,4.85,15.76,1.16,10.43,.98,20.85-.31,31.26-.13,1.07-.18,2.16-.28,3.33,2.11,1.26,4.35,1.37,6.61,1.17,4.59-.39,8.82-2.05,12.99-3.88,11-4.84,20.68-11.67,29.89-19.3,9.96-8.25,19.13-17.3,28.03-26.66,13.28-13.96,26.66-27.81,39.96-41.75,5.96-6.25,11.78-12.62,17.7-18.91,1.37-1.45,2.88-2.77,4.28-4.19,.97-.98,2.13-1.41,3.45-1.31,1.17,.09,2.41,.11,3.48,.53,5.75,2.27,6.89,5.67,5.61,11-.63,2.62-1.67,5.21-2.95,7.59-4.34,8.08-8.87,16.06-13.32,24.08-6.61,11.91-13.38,23.74-18.69,36.32-3.74,8.86-7.75,17.63-10.19,26.98-.8,3.07-1.36,6.21-1.8,9.35-.19,1.39,0,2.92,.35,4.3,.72,2.87,2.46,4.27,5.4,4.54,4.62,.43,9.06-.52,13.36-2.08,7.55-2.74,14.56-6.6,21.23-11.03,8.34-5.53,15.97-11.94,23.3-18.79,16.89-15.79,32.24-33.02,47.92-49.95,4.38-4.73,8.83-9.41,13.2-14.15,1.03-1.11,2.16-1.95,3.65-2.2,1.97-.33,3.63,.28,4.74,1.96,1.03,1.57,1.16,3.27,.05,4.86-1.41,2.01-2.87,3.98-4.38,5.91-16.1,20.51-32.74,40.6-49.8,60.32-10.35,11.96-21.23,23.42-33.52,33.47-9.85,8.06-20.74,14.08-33.05,17.29-4.18,1.09-8.57,1.8-12.89,1.9-10.49,.25-18.76-4.47-25.01-12.65-5.84-7.64-7.52-16.26-5.65-25.76,1.69-8.56,4.85-16.52,8.63-24.3,.37-.77,.7-1.57,1.05-2.35-.22-.17-.45-.34-.67-.51Zm-223.47-9.95c-12.33-7.65-18.53-19.41-22.75-33.1-.78,1.41-1.33,2.32-1.8,3.27-2.4,4.89-4.68,9.84-7.18,14.67-6.02,11.61-10.05,23.91-12.82,36.63-.89,4.07-1.78,8.17-.9,12.4,1.09,5.25,4.39,7.29,9.58,5.89,3.45-.93,6.15-3.06,8.72-5.38,10.9-9.83,19.45-21.51,27.16-34.38Zm10.02-17.76c.34-.48,.58-.76,.74-1.07,5.77-11.31,9.98-23.12,11.43-35.81,.53-4.61,.67-9.23-.49-13.79-.64-2.49-1.51-4.86-3.53-6.61-2.24-1.94-4.67-2.53-7.56-1.44-3.69,1.39-6.42,3.67-7.85,7.38-.62,1.6-1.25,3.21-1.73,4.86-1.45,4.92-1.76,9.99-1.86,15.07-.16,7.99,1.08,15.72,4.53,23.01,1.49,3.14,3.39,5.97,6.33,8.4Zm162.77-137.16c.11,.11,.23,.22,.34,.32,.35-.41,.72-.8,1.06-1.22,5.15-6.58,10.32-13.15,15.43-19.77,4.83-6.25,9.69-12.49,14.37-18.86,6.34-8.64,12.56-17.38,18.76-26.12,3.36-4.74,6.69-9.51,9.86-14.38,2.39-3.67,4.22-7.65,5.04-11.98,.28-1.46,.78-3.38-.79-4.26-1.35-.75-2.87,.31-3.92,1.25-2.35,2.12-4.79,4.22-6.74,6.69-5.18,6.56-10.35,13.14-15.08,20.02-5.18,7.56-10.08,15.33-14.71,23.24-8.31,14.19-15.64,28.91-22.97,43.62-.23,.47-.43,.96-.64,1.44Z"/><path class="cls-2" d="M912.52,397.22c.43,21.68-17.57,39.1-38.75,39.18-21.66,.08-39.37-17.41-39.43-38.97-.06-21.59,17.55-39.15,39.1-39.36,20.02-.19,39.43,16.4,39.08,39.15Z"/><path class="cls-1" d="M767.92,189.29c-.14,7.39-2.08,12.8-5.94,17.38-2.38,2.82-5.23,5.26-7.9,7.85-2.66,2.58-5.37,5.11-8.04,7.68-.72,.69-1.3,1.52-2.04,2.18-2.8,2.51-5.6,2-7.32-1.38-1.41-2.79-2.06-5.8-2.12-8.92-.1-5.34,1.11-10.45,2.91-15.42,1.61-4.43,3.4-8.79,5.09-13.19,1.7-4.42,3.09-8.91,3.07-13.72,0-.81,.12-1.63,.29-2.43,.6-2.81,2.14-3.75,4.73-2.57,2.05,.94,4.08,2.05,5.83,3.45,4.08,3.27,7.31,7.29,9.59,12.03,1.28,2.66,1.91,5.47,1.85,7.07Z"/></g></g></g></svg>